<svg width="246" height="64" viewBox="0 0 246 64" fill="none" xmlns="http://www.w3.org/2000/svg" role="img" aria-labelledby="title desc">
  <title id="title">DuoMente</title>
  <desc id="desc">DuoMente — Decisão Inteligente</desc>
  <g transform="translate(3 4)" stroke-linecap="round" stroke-linejoin="round">
    <path d="M25.5 4.5c-7.3 0-12.8 5.6-12.8 12.8-4.6 2-7.7 6.6-7.7 11.9 0 4.8 2.5 9 6.3 11.3-.1.7-.2 1.4-.2 2.1 0 6.4 5.2 11.6 11.6 11.6 2.7 0 5.2-.9 7.2-2.5V10.4c0-3.3-1.8-5.9-4.4-5.9Z" stroke="#38A3FF" stroke-width="2.5"/>
    <path d="M34.5 4.5c7.3 0 12.8 5.6 12.8 12.8 4.6 2 7.7 6.6 7.7 11.9 0 4.8-2.5 9-6.3 11.3.1.7.2 1.4.2 2.1 0 6.4-5.2 11.6-11.6 11.6-2.7 0-5.2-.9-7.2-2.5V10.4c0-3.3 1.8-5.9 4.4-5.9Z" stroke="#D8C8B3" stroke-width="2.5"/>
    <path d="M18 18c4.2 0 7 2.8 7 7m-10 5c5.5 0 8.5 3 8.5 7.5m-6.5 7c3.7 0 6.3-2.2 7.2-5.3M42 18c-4.2 0-7 2.8-7 7m10 5c-5.5 0-8.5 3-8.5 7.5m6.5 7c-3.7 0-6.3-2.2-7.2-5.3" stroke-width="2" opacity=".9"/>
    <circle cx="20" cy="25" r="1.8" fill="#38A3FF" stroke="none"/><circle cx="17" cy="38" r="1.8" fill="#38A3FF" stroke="none"/>
    <circle cx="40" cy="25" r="1.8" fill="#D8C8B3" stroke="none"/><circle cx="43" cy="38" r="1.8" fill="#D8C8B3" stroke="none"/>
  </g>
  <text x="68" y="31" fill="currentColor" font-family="Arial, Helvetica, sans-serif" font-size="26" font-weight="700" letter-spacing="-.7">DuoMente</text>
  <text x="70" y="48" fill="currentColor" opacity=".72" font-family="Arial, Helvetica, sans-serif" font-size="8.5" font-weight="600" letter-spacing="2.1">DECISÃO INTELIGENTE</text>
</svg>